<?xml version="1.0" standalone="no"?>
<!DOCTYPE svg PUBLIC "-//W3C//DTD SVG 20010904//EN"
 "http://www.w3.org/TR/2001/REC-SVG-20010904/DTD/svg10.dtd">
<svg version="1.0" xmlns="http://www.w3.org/2000/svg"
 width="514.000000pt" height="360.000000pt" viewBox="0 0 514.000000 360.000000"
 preserveAspectRatio="xMidYMid meet">

<g transform="translate(0.000000,360.000000) scale(0.100000,-0.100000)"
fill="#000000" stroke="none">
<path d="M4017 3584 c3 -9 98 -62 210 -116 111 -55 203 -103 203 -108 0 -15
-138 -90 -166 -90 -15 0 -48 12 -72 26 l-45 27 -19 -22 c-12 -16 -15 -28 -9
-40 9 -15 3 -16 -55 -13 -35 2 -64 0 -64 -5 0 -5 32 -20 70 -33 39 -13 70 -30
70 -37 0 -7 9 -13 20 -13 12 0 32 -11 46 -25 13 -13 33 -29 44 -35 17 -9 19
-6 22 36 l3 46 105 38 c58 21 116 42 130 48 23 9 32 3 116 -79 123 -120 135
-118 115 21 -9 60 -4 70 40 70 15 0 37 8 50 19 20 16 21 21 11 34 -12 14 -18
14 -64 0 -54 -16 -68 -10 -68 30 0 36 22 57 108 101 111 58 162 99 144 117 -7
7 -31 13 -55 12 -40 -2 -92 -25 -244 -109 -54 -30 -78 -28 -49 5 19 21 14 41
-10 41 -8 0 -32 -9 -54 -20 -22 -11 -56 -20 -76 -20 -20 0 -128 25 -239 55
-112 30 -208 55 -214 55 -6 0 -8 -7 -4 -16z"/>
<path d="M2487 3265 c-339 -55 -614 -190 -853 -417 -158 -151 -257 -286 -355
-479 -54 -109 -114 -291 -136 -413 -15 -90 -20 -100 -46 -116 -16 -10 -140
-62 -276 -116 -135 -53 -271 -110 -302 -125 -67 -33 -121 -77 -113 -91 10 -15
78 0 249 57 88 30 419 122 735 205 980 257 1358 372 1772 539 140 56 143 58
146 90 3 30 2 32 -17 22 -30 -17 -59 -13 -73 8 -11 19 -13 18 -34 -13 -13 -18
-37 -39 -54 -46 -26 -11 -33 -10 -50 5 -18 17 -20 16 -54 -20 -41 -43 -83 -46
-102 -6 -12 23 -12 23 -18 3 -8 -25 -71 -82 -91 -82 -8 0 -20 9 -27 20 -17 27
-23 25 -47 -14 -12 -18 -35 -39 -53 -47 -29 -12 -32 -11 -51 12 -17 21 -19 35
-14 113 l5 90 -59 -115 c-75 -148 -135 -205 -169 -164 -11 13 -17 11 -47 -15
-39 -35 -56 -37 -82 -11 -20 20 -20 19 -59 -20 -47 -46 -64 -48 -99 -12 -20
19 -28 22 -31 12 -9 -26 -89 -99 -110 -99 -56 0 -69 83 -27 184 13 33 22 62
20 65 -9 8 -22 -12 -35 -51 -11 -36 -32 -49 -44 -29 -4 5 -1 22 4 37 6 15 12
50 14 78 6 93 33 128 71 90 11 -11 14 -26 11 -43 -6 -25 -5 -24 24 9 16 19 30
38 30 43 0 11 35 8 48 -5 19 -19 15 -36 -33 -147 -45 -103 -53 -131 -37 -131
11 0 56 84 72 135 40 127 113 217 177 219 35 1 40 -2 56 -37 14 -28 16 -41 8
-51 -8 -10 -7 -17 5 -27 13 -11 15 -25 9 -77 -14 -132 46 -19 75 140 10 54 20
102 23 105 4 3 17 3 31 -1 45 -11 49 -35 21 -152 -14 -59 -23 -109 -20 -112 8
-8 103 198 117 253 6 28 13 52 15 54 2 3 13 -5 26 -17 l23 -22 22 89 c12 48
25 109 28 135 8 53 15 60 49 52 50 -13 49 -32 -5 -239 -27 -106 -50 -209 -50
-228 l1 -34 24 40 c32 51 61 142 70 223 8 68 14 77 50 68 41 -10 46 -35 26
-122 -10 -43 -21 -96 -24 -118 -6 -37 -6 -38 13 -21 27 24 59 113 79 220 16
85 18 90 41 87 56 -6 59 -26 30 -158 -11 -49 -20 -98 -20 -109 0 -18 2 -18 20
5 29 37 58 125 71 215 6 44 15 84 20 89 12 13 57 -2 69 -23 7 -14 5 -42 -9
-103 -10 -46 -22 -99 -25 -118 l-6 -35 25 30 c30 36 59 124 75 223 13 77 24
91 59 72 l21 -11 -2 213 -3 212 -73 23 c-160 50 -257 65 -462 68 -138 3 -221
0 -283 -10z m-267 -560 c0 -26 -7 -38 -29 -55 -32 -22 -132 -50 -249 -70 l-72
-12 25 -20 c14 -11 25 -24 25 -30 0 -6 -16 -51 -36 -99 -67 -168 -124 -389
-124 -480 0 -43 -5 -46 -39 -22 -23 15 -24 20 -18 107 7 104 39 242 96 412 22
66 38 120 37 121 -8 9 -127 -61 -150 -88 -38 -45 -48 -72 -55 -154 l-6 -70
-32 -3 c-28 -3 -33 1 -39 23 -9 38 12 131 41 180 34 58 114 128 188 165 34 17
109 41 167 55 144 35 212 55 234 71 26 18 36 9 36 -31z"/>
<path d="M4210 3011 c-20 -6 -4 -14 92 -44 298 -94 473 -233 538 -428 63 -185
-24 -374 -300 -649 -225 -226 -489 -414 -944 -675 -473 -270 -954 -502 -1930
-931 l-409 -179 67 -3 c89 -4 202 20 356 75 165 59 206 57 370 -14 218 -95
377 -136 595 -153 513 -40 1020 168 1359 557 146 168 240 329 325 556 53 141
94 200 204 296 220 191 406 404 500 574 l27 48 0 267 c0 302 4 286 -86 378
-62 64 -149 122 -273 184 -258 130 -394 169 -491 141z"/>
<path d="M4416 2740 c-15 -114 -116 -254 -270 -375 -159 -123 -299 -199 -946
-511 -286 -137 -308 -147 -360 -145 -38 1 -103 -12 -216 -44 -96 -27 -169 -42
-180 -38 -17 6 -17 5 -5 -10 15 -19 8 -47 -11 -46 -10 0 -10 2 0 6 17 7 15 32
-3 39 -8 4 -12 10 -9 15 3 5 -3 6 -12 2 -12 -4 -15 -3 -10 5 5 8 2 10 -8 6 -9
-3 -16 -1 -16 6 0 6 -4 9 -9 6 -5 -3 -26 1 -47 9 -34 13 -35 15 -9 11 30 -5
30 -5 -5 11 -19 9 -60 18 -90 20 -50 4 -79 -4 -350 -105 -324 -121 -680 -261
-744 -294 -61 -31 -154 -106 -170 -136 -7 -15 -17 -47 -21 -72 -7 -47 -29 -90
-45 -90 -5 0 -41 -19 -79 -42 -83 -50 -100 -78 -82 -138 6 -22 9 -50 5 -64 -7
-30 20 -129 41 -146 11 -9 35 -7 119 13 l105 24 25 -36 c51 -73 115 -90 167
-43 26 23 32 36 33 75 1 45 8 58 21 37 21 -34 95 16 95 64 0 19 35 34 318 135
477 171 784 287 914 346 l116 52 34 -34 c87 -87 188 -31 188 103 0 24 4 31 18
30 10 0 16 5 15 15 -2 8 15 28 37 45 35 26 40 34 40 70 l0 42 118 47 c313 125
739 328 927 441 244 146 430 308 482 419 62 134 23 271 -91 315 -22 8 -24 6
-30 -40z m-2229 -1056 c-3 -3 -12 -4 -19 -1 -8 3 -5 6 6 6 11 1 17 -2 13 -5z
m80 0 c-3 -3 -12 -4 -19 -1 -8 3 -5 6 6 6 11 1 17 -2 13 -5z m-126 -13 c-7 -5
17 -6 58 -3 l71 5 0 -70 c0 -62 -2 -71 -22 -82 -23 -11 -23 -11 2 -6 32 7 6
-9 -30 -19 -20 -6 -22 -5 -10 4 12 9 12 10 -5 6 -16 -4 -29 8 -64 62 -25 37
-43 69 -42 71 2 2 -3 8 -11 13 -9 6 -5 7 11 3 15 -5 21 -3 17 3 -6 10 8 20 29
21 6 0 4 -3 -4 -8z m669 -11 c-8 -5 -23 -10 -32 -10 -23 0 -334 -102 -474
-155 -63 -24 -114 -40 -114 -36 0 4 15 13 33 19 17 6 124 43 237 82 245 85
392 127 350 100z m100 -8 c0 -4 -13 -13 -29 -19 -23 -8 -31 -8 -35 2 -3 8 6
17 22 23 27 9 42 7 42 -6z m-880 -22 c-8 -5 -19 -10 -25 -10 -5 0 -3 5 5 10 8
5 20 10 25 10 6 0 3 -5 -5 -10z m-50 -19 c-8 -5 -26 -11 -40 -15 -21 -5 -20
-3 5 9 32 15 60 20 35 6z m945 -31 c-57 -27 -97 -38 -81 -23 12 12 110 52 126
52 8 0 -12 -13 -45 -29z m-1025 1 c-8 -5 -26 -11 -40 -15 -21 -5 -20 -3 5 9
32 15 60 20 35 6z m-80 -30 c-8 -5 -26 -11 -40 -15 -21 -5 -20 -3 5 9 32 15
60 20 35 6z m560 5 c0 -6 -93 -37 -97 -32 -2 2 15 11 39 19 47 17 58 19 58 13z
m-670 -45 c-8 -5 -26 -11 -40 -15 -21 -5 -20 -3 5 9 32 15 60 20 35 6z m1071
-12 c65 -46 92 -156 54 -213 -34 -51 -86 -36 -133 38 -20 31 -26 54 -26 95 0
47 3 56 29 77 37 29 40 29 76 3z m-1151 -18 c-8 -5 -26 -11 -40 -15 -21 -5
-20 -3 5 9 32 15 60 20 35 6z m530 0 c0 -9 20 -1 -640 -250 -445 -167 -489
-181 -490 -151 0 3 8 6 18 7 9 1 71 22 137 47 525 197 952 355 963 356 6 0 12
-4 12 -9z m140 -21 c0 -5 -4 -10 -10 -10 -5 0 -10 5 -10 10 0 6 5 10 10 10 6
0 10 -4 10 -10z m319 -5 c-40 -22 -719 -284 -1103 -426 -319 -118 -407 -146
-381 -120 6 5 278 108 605 230 327 121 660 245 740 275 145 55 188 68 139 41z
m-1069 -4 c-8 -5 -26 -11 -40 -15 -21 -5 -20 -3 5 9 32 15 60 20 35 6z m625 1
c-6 -5 -111 -46 -235 -92 -304 -112 -830 -320 -830 -328 0 -4 -10 -8 -23 -8
-12 -1 -89 -31 -171 -68 -82 -36 -154 -66 -160 -66 -38 1 650 282 1159 474
252 95 277 103 260 88z m-705 -31 c-8 -5 -26 -11 -40 -15 -21 -5 -20 -3 5 9
32 15 60 20 35 6z m-110 -41 c-8 -5 -19 -10 -25 -10 -5 0 -3 5 5 10 8 5 20 10
25 10 6 0 3 -5 -5 -10z m-80 -29 c-8 -5 -26 -11 -40 -15 -21 -5 -20 -3 5 9 32
15 60 20 35 6z m-80 -31 c-8 -5 -19 -10 -25 -10 -5 0 -3 5 5 10 8 5 20 10 25
10 6 0 3 -5 -5 -10z m-99 -57 c-24 -20 -50 -51 -57 -67 -9 -22 -13 -25 -14
-12 0 18 89 116 105 116 5 0 -11 -17 -34 -37z m-74 -150 c-3 -10 -5 -2 -5 17
0 19 2 27 5 18 2 -10 2 -26 0 -35z m89 -293 c58 -43 86 -127 60 -178 -28 -54
-74 -63 -105 -21 -40 57 -48 78 -48 124 -1 78 42 112 93 75z m-196 -9 c0 -11
-179 -75 -187 -67 -10 9 -2 14 88 50 80 31 99 35 99 17z m380 -71 c-7 -13 -21
-20 -41 -20 -18 0 -28 4 -24 10 3 6 15 10 25 10 10 0 22 5 25 10 12 20 26 10
15 -10z"/>
<path d="M2751 1416 c-13 -16 -10 -51 7 -68 18 -18 45 2 47 33 4 42 -30 65
-54 35z"/>
<path d="M1070 744 c-19 -22 -1 -68 27 -72 38 -6 53 57 19 80 -17 12 -32 9
-46 -8z"/>
<path d="M3292 2572 c-14 -68 -12 -82 7 -58 7 8 11 37 9 68 l-3 53 -13 -63z"/>
<path d="M2244 2405 c-30 -20 -65 -109 -72 -178 -4 -54 -3 -59 14 -55 24 4 74
101 81 159 3 24 10 47 16 50 11 8 2 39 -10 39 -5 0 -18 -7 -29 -15z"/>
</g>
</svg>
